<svg xmlns="http://www.w3.org/2000/svg" width="335.998" height="61.152" viewBox="0 0 314.99859 57.330002">
  <path style="line-height:125%;-inkscape-font-specification:'Wolf in the City, Italic';text-align:start" d="M95.31 0c-.18 0-.6.18-1.26.54-.6.3-1.5.63-2.7.99-1.14.36-2.64.72-4.5 1.08-1.8.3-4.02.45-6.66.45-2.1 0-4.26-.18-6.48-.54-2.16-.36-4.74-.54-7.74-.54-1.8 0-3.69.12-5.67.36s-3.9.72-5.76 1.44c-1.86.66-3.6 1.59-5.22 2.79-1.62 1.14-2.97 2.64-4.05 4.5-.3-.06-.57-.09-.81-.09h-.81c-1.26 0-2.67.3-4.23.9-1.5.6-2.94 1.5-4.32 2.7-1.38 1.2-2.61 2.73-3.69 4.59-1.02 1.8-1.71 3.9-2.07 6.3-2.34-1.08-4.74-1.98-7.2-2.7-2.46-.78-4.98-1.17-7.56-1.17-1.56 0-3.15.12-4.77.36-1.62.24-3.12.57-4.5.99-1.32.42-2.46.87-3.42 1.35-.96.48-1.53.93-1.71 1.35-.12.18-.18.42-.18.72v.72c0 .48.06.96.18 1.44s.24.93.36 1.35l.54 1.44c.24-.18.63-.39 1.17-.63.54-.24 1.05-.48 1.53-.72.6-.24 1.23-.51 1.89-.81.84-.36 2.19-.84 4.05-1.44 1.86-.6 4.17-.9 6.93-.9 1.98 0 3.96.3 5.94.9 1.98.6 4.2 1.32 6.66 2.16.18 2.4.78 4.56 1.8 6.48 1.08 1.86 2.43 3.45 4.05 4.77 1.412 1.11 3.007 1.932 4.715 2.575-.054.342-.17.684-.17 1.025 0 1.02.18 1.89.54 2.61.36.72.78 1.35 1.26 1.89.54.66 1.17 1.2 1.89 1.62 1.98 1.44 4.2 2.58 6.66 3.42 2.4.9 4.83 1.56 7.29 1.98 2.4.48 4.65.78 6.75.9 2.1.12 3.78.18 5.04.18 2.46 0 5.22-.21 8.28-.63 3.06-.36 6.18-.84 9.36-1.44 3.12-.54 6.18-1.17 9.18-1.89 3-.66 5.67-1.32 8.01-1.98 2.34-.6 4.23-1.14 5.67-1.62 1.44-.42 2.16-.66 2.16-.72 3.96-1.02 7.23-1.89 9.81-2.61l6.48-1.62c1.68-.42 2.97-.72 3.87-.9.9-.18 1.62-.27 2.16-.27.3 0 .51.03.63.09s.27.15.45.27c1.8 1.62 3.45 2.91 4.95 3.87 1.56.96 2.94 1.71 4.14 2.25 1.26.54 2.34.87 3.24.99.96.18 1.77.27 2.43.27 1.56 0 2.52-.24 2.88-.72.36-.48.54-.93.54-1.35 0-1.98-.84-3.66-2.52-5.04-1.2-.9-2.61-1.65-4.23-2.25-.938-.326-1.877-.52-2.816-.758.782-.095 1.564-.14 2.347-.412 1.2-.36 2.28-.93 3.24-1.71.96-.78 1.74-1.74 2.34-2.88.6-1.2.9-2.55.9-4.05-.3-2.76-.75-5.22-1.35-7.38-.6-2.16-.93-3.96-.99-5.4.06-.18.09-.33.09-.45.06-.12.09-.24.09-.36 0-.3-.03-.54-.09-.72-.18-.6-.51-1.11-.99-1.53-.42-.48-.87-.87-1.35-1.17-.48-.3-.93-.54-1.35-.72-.332-.22-.474-.346-.5-.414-.17.022-.358.138-.58.414-.18.24-.36.57-.54.99-.18.42-.33.84-.45 1.26-.06.42-.09.75-.09.99-.48.84-1.02 1.83-1.62 2.97-.6 1.08-1.23 2.25-1.89 3.51-.66 1.2-1.35 2.4-2.07 3.6-.66 1.2-1.26 2.25-1.8 3.15-.84.12-1.47.54-1.89 1.26-.48.66-.72 1.44-.72 2.34 0 .72.18 1.5.54 2.34.3.78.78 1.53 1.44 2.25.402.402.965.705 1.477 1.04-.52-.065-1.024-.178-1.55-.23h-.63c-1.74-2.1-3.33-4.26-4.77-6.48-1.38-2.28-2.19-4.41-2.43-6.39.6-1.02 1.292-2.04 2.072-3.06.84-1.08 1.62-2.04 2.34-2.88.78-.9 1.44-1.62 1.98-2.16l.81-.81c0-.12-.18-.3-.54-.54-.18-.12-.332-.21-.452-.27l-1.44 1.17c-.9.72-2.1 1.86-3.6 3.42-1.5 1.56-3.18 3.54-5.04 5.94-1.86 2.34-3.688 5.16-5.488 8.46 0-1.32.27-2.88.81-4.68.6-1.86 1.29-3.81 2.07-5.85.84-2.04 1.738-4.08 2.698-6.12s1.83-3.9 2.61-5.58c.84-1.68 1.532-3.12 2.072-4.32.54-1.2.808-1.95.808-2.25 0-.6-.238-1.17-.718-1.71s-1.022-.99-1.622-1.35c-.6-.42-1.17-.75-1.71-.99s-.87-.36-.99-.36c0 .42-.088.93-.268 1.53-.12.6-.27 1.17-.45 1.71s-.36 1.02-.54 1.44c-.12.36-.21.57-.27.63-.42.9-1.11 2.52-2.07 4.86-.9 2.34-1.83 4.92-2.79 7.74-.9 2.82-1.71 5.64-2.43 8.46-.38 1.48-.388 2.53-.567 3.777-.487.51-.983 1.028-1.85 1.713-.42.36-.93.78-1.53 1.26-.6.42-1.26.84-1.98 1.26-.72.36-1.47.69-2.25.99-.78.3-1.59.45-2.43.45-1.62 0-2.97-.6-4.05-1.8-1.08-1.2-1.62-2.73-1.62-4.59 0-1.38.268-2.73.808-4.05.6-1.38 1.32-2.58 2.16-3.6.84-1.08 1.682-1.95 2.522-2.61.9-.66 1.68-.99 2.34-.99.72 0 1.08.48 1.08 1.44 0 .54-.092 1.14-.272 1.8-.12.6-.36 1.29-.72 2.07-.36.78-.87 1.59-1.53 2.43l1.442.54c.42.12.87.24 1.35.36.48.12.96.18 1.44.18.72 0 1.35-.24 1.89-.72.54-.48.96-1.08 1.26-1.8.3-.72.51-1.47.63-2.25.18-.84.27-1.59.27-2.25 0-.18-.06-.66-.18-1.44-.12-.84-.39-1.68-.81-2.52-.42-.9-1.022-1.68-1.802-2.34-.78-.72-1.828-1.08-3.148-1.08-.54 0-1.08.09-1.62.27-3.72 1.26-6.45 3.39-8.19 6.39-1.68 3-2.52 6.36-2.52 10.08 0 .46.17.946.242 1.416-.72 1.67-1.47 3.13-2.283 4.164-1.32 1.62-2.4 2.43-3.24 2.43-.84 0-1.26-.99-1.26-2.97 0-1.08.148-2.19.448-3.33.36-1.14.78-2.25 1.26-3.33s.99-2.13 1.53-3.15c.6-1.08 1.14-2.07 1.62-2.97h.09c.24-.48.45-.93.63-1.35.18-.48.27-.96.27-1.44 0-.54-.21-1.05-.63-1.53-.42-.54-.9-1.02-1.44-1.44-.54-.48-1.05-.84-1.53-1.08-.48-.3-.75-.45-.81-.45-.06.12-.12.3-.18.54 0 .18-.06.36-.18.54-.66-.42-1.38-.81-2.16-1.17-.72-.42-1.74-.63-3.06-.63-1.92 0-3.69.48-5.31 1.44-1.56.96-2.94 2.19-4.14 3.69-1.14 1.5-2.04 3.18-2.7 5.04-.66 1.8-.99 3.54-.99 5.22 0 .72.09 1.59.27 2.61.18.96.51 1.92.99 2.88s1.14 1.77 1.98 2.43c.9.66 2.04.99 3.42.99 1.02 0 1.86-.12 2.52-.36.72-.24 1.32-.51 1.8-.81.54-.36.96-.72 1.26-1.08.36-.42.66-.78.9-1.08.42 1.86 1.08 3.15 1.98 3.87.96.78 1.89 1.17 2.79 1.17 1.32 0 2.492-.6 3.512-1.8 1.08-1.14 1.98-2.43 2.7-3.87.187-.377.26-.696.423-1.06.3.922.68 1.804 1.255 2.59.66.84 1.47 1.56 2.43 2.16 1.02.54 2.222.81 3.602.81 1.32 0 2.728-.33 4.228-.99 1.56-.66 3.03-1.5 4.41-2.52.877-.685 1.556-1.502 2.287-2.285-.012.272-.14.68-.14.936 0 1.02.12 1.83.36 2.43.18.6.45 1.05.81 1.35.3.24.6.39.9.45.36.06.69.09.99.09.78 0 1.35-.15 1.71-.45.42-.36.81-.87 1.17-1.53.36-.66.78-1.5 1.26-2.52.54-1.08 1.26-2.34 2.16-3.78.6 1.02 1.35 2.16 2.25 3.42.96 1.26 2.13 2.55 3.51 3.87-2.28.3-4.53.66-6.75 1.08-2.22.48-4.23.93-6.03 1.35-1.8.48-3.3.9-4.5 1.26-1.26.36-2.07.57-2.43.63-3.66 1.02-7.32 1.86-10.98 2.52-3.72.72-7.11 1.32-10.17 1.8-3.54.54-6.93.96-10.17 1.26-3.72.36-7.14.54-10.26.54-5.58 0-10.2-.42-13.86-1.26-3.72-.78-6.72-1.68-9-2.7-1.41-.61-2.643-1.278-3.746-1.99 1.61.383 3.253.64 4.96.64 2.94 0 5.76-.57 8.46-1.71 2.7-1.14 5.01-2.85 6.93-5.13 1.98-2.46 3.69-4.98 5.13-7.56 1.44-2.64 2.7-5.22 3.78-7.74 1.08-2.52 2.07-4.95 2.97-7.29.9-2.4 1.86-4.56 2.88-6.48 0-.3-.21-.57-.63-.81 2.28.48 4.47.72 6.57.72 3.12 0 5.58-.24 7.38-.72 1.8-.48 2.94-.87 3.42-1.17.36-.3.66-.63.9-.99.24-.3.45-.69.63-1.17.24-.54.36-1.14.36-1.8l-.09-.54c0-.36-.06-.75-.18-1.17-.06-.42-.15-.78-.27-1.08-.12-.36-.27-.54-.45-.54zm50.828 14.076c.014-.002.034-.035.048-.035h-.09c0 .006.04.03.042.036zM248.642.45c-.12 0-.33.39-.63 1.17-.24.72-.75 1.71-1.53 2.97-.78 1.26-1.92 2.79-3.42 4.59-1.5 1.74-3.6 3.66-6.3 5.76v.09c-1.38 1.02-2.82 2.13-4.32 3.33-1.5 1.14-3.03 2.4-4.59 3.78-.66.54-1.38 1.17-2.16 1.89-.72.72-1.44 1.53-2.16 2.43-.66.9-1.23 1.89-1.71 2.97-.42 1.08-.63 2.25-.63 3.51 0 1.38.36 2.64 1.08 3.78 1.32 1.86 3 3.6 5.04 5.22 2.1 1.68 4.35 3.15 6.75 4.41 2.4 1.26 4.8 2.25 7.2 2.97 2.46.72 4.74 1.08 6.84 1.08 1.92 0 3.6-.27 5.04-.81 1.5-.48 2.73-1.05 3.69-1.71 1.02-.6 1.77-1.17 2.25-1.71s.72-.84.72-.9c0-.3-.18-.45-.54-.45h-.18c0 .06-.03.09-.09.09h-.09c0-.06-.21.09-.63.45-.36.42-.93.84-1.71 1.26-.78.48-1.8.9-3.06 1.26-1.26.42-2.73.63-4.41.63-.84 0-2.01-.21-3.51-.63-1.5-.36-3.15-.9-4.95-1.62-1.74-.66-3.54-1.47-5.4-2.43-1.86-.96-3.54-2.01-5.04-3.15-1.5-1.14-2.73-2.34-3.69-3.6-.96-1.32-1.44-2.64-1.44-3.96 0-1.44.57-2.85 1.71-4.23 1.2-1.38 2.58-2.64 4.14-3.78 1.56-1.2 3.09-2.25 4.59-3.15 1.56-.96 2.7-1.68 3.42-2.16 1.02-.6 2.31-1.44 3.87-2.52 1.62-1.08 3.18-2.25 4.68-3.51 1.5-1.32 2.79-2.67 3.87-4.05 1.08-1.44 1.62-2.76 1.62-3.96 0-.36-.06-.78-.18-1.26-.06-.48-.24-.96-.54-1.44-.3-.48-.75-.96-1.35-1.44-.54-.48-1.29-.87-2.25-1.17zm-23.49 1.71c0 .6-.12 1.29-.36 2.07-.18.78-.57 1.62-1.17 2.52-.54.84-1.32 1.74-2.34 2.7-.96.9-2.22 1.77-3.78 2.61-1.32.84-2.61 1.41-3.87 1.71-1.26.3-2.4.51-3.42.63-.96.06-1.74.12-2.34.18-.6.06-.9.24-.9.54v.36c0 .06.03.09.09.09h.09c.12 0 .57.06 1.35.18.84.12 1.86.18 3.06.18 1.32 0 2.79-.15 4.41-.45 1.68-.3 3.39-.87 5.13-1.71-.96 2.34-1.95 4.95-2.97 7.83-1.02 2.82-1.98 5.55-2.88 8.19-.84 2.64-1.53 5.01-2.07 7.11-.54 2.04-.81 3.48-.81 4.32 0 .84.18 1.5.54 1.98.36.48.75.84 1.17 1.08.42.3.81.51 1.17.63.42.12.69.18.81.18 0-1.92.18-3.39.54-4.41.36-1.08.57-1.62.63-1.62.3-.72.75-1.83 1.35-3.33.6-1.5 1.26-3.18 1.98-5.04.78-1.92 1.59-3.9 2.43-5.94.84-2.1 1.65-4.08 2.43-5.94.78-1.86 1.47-3.51 2.07-4.95.6-1.5 1.08-2.58 1.44-3.24l.81-1.62c.18-.36.3-.66.36-.9.12-.24.18-.45.18-.63v-.72c0-.72-.24-1.35-.72-1.89-.48-.6-1.02-1.08-1.62-1.44-.6-.36-1.2-.63-1.8-.81-.54-.24-.87-.39-.99-.45zM62.818 6.39c1.62 0 3.15.12 4.59.36 1.5.18 3.03.42 4.59.72l-.27.27v.09c-.54 1.08-1.41 3.3-2.61 6.66-1.14 3.3-2.64 7.17-4.5 11.61-.72 1.92-1.65 3.81-2.79 5.67-1.08 1.8-2.37 3.42-3.87 4.86-1.5 1.38-3.21 2.52-5.13 3.42-1.86.84-3.9 1.26-6.12 1.26-3.96 0-7.14-.93-9.54-2.79-2.34-1.86-3.93-4.32-4.77-7.38 1.38.48 2.73.87 4.05 1.17 1.32.3 2.73.45 4.23.45 2.16 0 4.35-.39 6.57-1.17 2.28-.78 4.02-2.16 5.22-4.14 1.74 0 3-.15 3.78-.45.84-.36 1.26-.63 1.26-.81 0-.3-.09-.45-.27-.45-.18-.06-.3-.09-.36-.09-.12 0-.51.06-1.17.18-.6.12-1.41.18-2.43.18.72-1.44 1.08-2.79 1.08-4.05 0-2.46-.51-4.59-1.53-6.39-1.02-1.86-2.58-3.12-4.68-3.78l1.08-1.08c1.8-1.56 3.87-2.67 6.21-3.33 2.4-.66 4.86-.99 7.38-.99zm190.49 3.6c-.84 0-1.56.3-2.16.9-.54.6-.81 1.38-.81 2.34 0 .78.18 1.47.54 2.07.36.6.96.9 1.8.9.66 0 1.29-.21 1.89-.63.6-.42 1.05-.96 1.35-1.62.18-.36.27-.75.27-1.17 0-.78-.27-1.44-.81-1.98s-1.23-.81-2.07-.81zM44.37 12.33l.09.18c-.42.9-.75 1.83-.99 2.79s-.36 1.89-.36 2.79c0 2.34.66 4.32 1.98 5.94 1.38 1.56 2.85 2.55 4.41 2.97-1.02 1.02-2.16 1.71-3.42 2.07-1.2.3-2.73.45-4.59.45-.42 0-1.17-.09-2.25-.27-1.02-.18-2.1-.39-3.24-.63-1.08-.3-2.04-.63-2.88-.99-.84-.42-1.26-.84-1.26-1.26 0-1.74.33-3.42.99-5.04.66-1.68 1.53-3.15 2.61-4.41 1.14-1.32 2.46-2.4 3.96-3.24 1.56-.84 3.21-1.29 4.95-1.35zm2.97.54c.42.12.9.36 1.44.72.6.36 1.17.84 1.71 1.44s.99 1.32 1.35 2.16c.36.84.54 1.83.54 2.97 0 .9-.15 1.83-.45 2.79-.24.9-.66 1.77-1.26 2.61-1.68-.54-2.94-1.35-3.78-2.43-.78-1.08-1.17-2.58-1.17-4.5 0-2.04.54-3.96 1.62-5.76zm143.407 1.17c-.18.84-.39 1.5-.63 1.98-.24.42-.6.93-1.08 1.53-.42.54-.99 1.26-1.71 2.16-.72.84-1.62 2.04-2.7 3.6-1.08 1.5-2.37 3.51-3.87 6.03-1.44 2.46-3.15 5.58-5.13 9.36-.06-.24-.09-.6-.09-1.08 0-1.8.36-3.51 1.08-5.13.72-1.62 1.5-3.15 2.34-4.59.9-1.5 1.71-2.88 2.43-4.14.72-1.26 1.08-2.4 1.08-3.42 0-.48-.18-.99-.54-1.53-.36-.54-.78-1.02-1.26-1.44-.42-.48-.87-.87-1.35-1.17-.48-.3-.81-.45-.99-.45-.12.42-.36 1.14-.72 2.16-.36.96-.72 1.8-1.08 2.52l-.99 1.98c-.54 1.02-1.11 2.31-1.71 3.87-.6 1.56-1.14 3.3-1.62 5.22-.314 1.253-.36 2.54-.47 3.818-.255.138-.497.275-.77.412-.48.18-.992.27-1.532.27-.48 0-.84-.06-1.08-.18.96-1.2 1.89-2.76 2.79-4.68.96-1.98 1.44-4.05 1.44-6.21v-.81c0-.3-.03-.6-.09-.9 0-.42-.12-.96-.36-1.62-.18-.66-.48-1.29-.9-1.89-.36-.6-.87-1.11-1.53-1.53-.66-.48-1.47-.72-2.43-.72-.96 0-1.74.15-2.34.45-.6.3-1.14.63-1.62.99-.48-.78-.84-1.23-1.08-1.35-.18-.18-.33-.27-.45-.27-.36.12-1.02.57-1.98 1.35-.96.72-1.95 1.74-2.97 3.06-.96 1.32-1.83 2.91-2.61 4.77-.78 1.8-1.17 3.87-1.17 6.21 0 .9.15 1.83.45 2.79.24.96.63 1.86 1.17 2.7.54.84 1.23 1.53 2.07 2.07.9.54 1.98.81 3.24.81 1.5 0 2.79-.39 3.87-1.17 1.14-.84 1.86-1.47 2.16-1.89.78.3 1.53.45 2.25.45 1.14 0 2.1-.15 2.88-.45.18-.077.244-.17.405-.25.038 1.584.218 2.955.656 3.94.48 1.14 1.44 1.71 2.88 1.71.48 0 .9-.18 1.26-.54.42-.36.78-.75 1.08-1.17.3-.42.512-.81.632-1.17l.27-.63c.18-.66.57-1.65 1.17-2.97.66-1.38 1.38-2.82 2.16-4.32.78-1.56 1.56-3.06 2.34-4.5.84-1.5 1.53-2.76 2.07-3.78-.6 1.62-1.082 3.09-1.442 4.41-.36 1.26-.54 2.7-.54 4.32 0 1.98.42 3.57 1.26 4.77.54.72 1.112 1.2 1.712 1.44.6.24 1.17.36 1.71.36 1.32 0 2.488-.51 3.508-1.53 1.08-1.02 1.982-2.16 2.702-3.42.72-1.26 1.26-2.4 1.62-3.42.42-1.08.63-1.68.63-1.8l-.182-.18c-.18-.18-.36-.27-.54-.27l-.18.09c-1.2 2.76-2.46 4.77-3.78 6.03-1.26 1.2-2.28 1.8-3.06 1.8-.54 0-.9-.21-1.08-.63-.12-.48-.178-1.05-.178-1.71 0-1.2.208-2.4.628-3.6.48-1.26 1.022-2.49 1.622-3.69.66-1.2 1.318-2.34 1.978-3.42.72-1.14 1.32-2.22 1.8-3.24.24-.24.39-.6.45-1.08.12-.48.18-.81.18-.99 0-.54-.21-1.05-.63-1.53-.42-.54-.87-1.02-1.35-1.44-.48-.48-.96-.84-1.44-1.08-.42-.3-.66-.45-.72-.45zm81.738 0c-.18.84-.39 1.5-.63 1.98-.24.42-.6.93-1.08 1.53-.42.54-.99 1.26-1.71 2.16-.72.84-1.62 2.04-2.7 3.6-1.08 1.5-2.37 3.51-3.87 6.03-1.44 2.46-3.15 5.58-5.13 9.36-.06-.24-.09-.6-.09-1.08 0-1.8.36-3.51 1.08-5.13.72-1.62 1.5-3.15 2.34-4.59.9-1.5 1.71-2.88 2.43-4.14.72-1.26 1.08-2.4 1.08-3.42 0-.48-.18-.99-.54-1.53-.36-.54-.78-1.02-1.26-1.44-.42-.48-.87-.87-1.35-1.17-.48-.3-.81-.45-.99-.45-.12.42-.36 1.14-.72 2.16-.36.96-.72 1.8-1.08 2.52l-.99 1.98c-.54 1.02-1.11 2.31-1.71 3.87-.6 1.56-1.14 3.3-1.62 5.22-.285 1.135-.31 2.303-.427 3.46-.452.56-.893 1.175-1.377 1.58-1.5 1.2-2.76 1.8-3.78 1.8-.66 0-1.08-.21-1.26-.63-.18-.42-.27-.96-.27-1.62 0-1.92.51-3.96 1.53-6.12 1.08-2.16 2.13-4.2 3.15-6.12.66-.84.99-1.62.99-2.34 0-.9-.24-1.62-.72-2.16-.48-.6-.99-1.08-1.53-1.44-.54-.36-1.048-.63-1.528-.81-.42-.18-.6-.33-.54-.45-.12.6-.482 1.53-1.082 2.79-.54 1.26-1.14 2.7-1.8 4.32-.66 1.62-1.26 3.36-1.8 5.22-.54 1.86-.81 3.69-.81 5.49 0 1.68.42 3.21 1.26 4.59.78 1.32 2.04 1.98 3.78 1.98 1.86 0 3.39-.54 4.59-1.62.444-.38.668-.833 1.044-1.235.075 1.34.193 2.614.58 3.485.48 1.14 1.44 1.71 2.88 1.71.48 0 .9-.18 1.26-.54.42-.36.78-.75 1.08-1.17.3-.42.512-.81.632-1.17l.27-.63c.18-.66.57-1.65 1.17-2.97.66-1.38 1.38-2.82 2.16-4.32.78-1.56 1.56-3.06 2.34-4.5.84-1.5 1.53-2.76 2.07-3.78-.6 1.62-1.082 3.09-1.442 4.41-.36 1.26-.54 2.7-.54 4.32 0 1.98.42 3.57 1.26 4.77.54.72 1.112 1.2 1.712 1.44.6.24 1.17.36 1.71.36 1.32 0 2.49-.51 3.51-1.53 1.053-.995 1.924-2.113 2.635-3.338.037.166.037.285.077.457.18 1.02.51 1.98.99 2.88.54.9 1.26 1.68 2.16 2.34.9.6 2.07.9 3.51.9.9 0 1.65-.12 2.25-.36.6-.24 1.17-.48 1.71-.72-.06.3-.12.54-.18.72-.06.24-.12.51-.18.81-1.92.12-3.66.21-5.22.27-1.56.12-3.06.3-4.5.54-.18.06-.45.18-.81.36-.42.18-.81.45-1.17.81-.42.36-.78.84-1.08 1.44-.3.6-.45 1.35-.45 2.25 0 .6.09 1.26.27 1.98 0-.24.45-.51 1.35-.81.9-.3 2.01-.57 3.33-.81 1.32-.24 2.7-.48 4.14-.72 1.44-.18 2.7-.33 3.78-.45.3 1.92 1.14 3.48 2.52 4.68 1.38 1.2 2.85 1.8 4.41 1.8.9 0 1.74-.21 2.52-.63.84-.36 1.56-.84 2.16-1.44.66-.6 1.17-1.29 1.53-2.07.36-.78.54-1.56.54-2.34 0-1.02-.3-1.86-.9-2.52-.6-.6-1.38-1.08-2.34-1.44-.96-.3-2.04-.51-3.24-.63-1.2-.12-2.37-.21-3.51-.27 1.26-3.72 2.73-7.41 4.41-11.07 1.68-3.66 3.24-7.02 4.68-10.08.24-.54.36-1.05.36-1.53 0-.3-.03-.51-.09-.63-.12-.48-.39-.93-.81-1.35-.42-.42-.87-.78-1.35-1.08-.54-.36-1.14-.72-1.8-1.08-.06.54-.24 1.05-.54 1.53-.24.48-.51.96-.81 1.44-.66-.3-1.41-.57-2.25-.81-.84-.24-1.86-.36-3.06-.36-1.98.12-3.75.69-5.31 1.71-1.56 1.02-2.91 2.31-4.05 3.87-1.08 1.5-1.92 3.18-2.52 5.04-.6 1.8-.9 3.51-.9 5.13l.007.033c-.65 1.054-1.317 1.924-2 2.576-1.26 1.2-2.278 1.8-3.058 1.8-.54 0-.9-.21-1.08-.63-.12-.48-.18-1.05-.18-1.71 0-1.2.21-2.4.63-3.6.48-1.26 1.02-2.49 1.62-3.69.66-1.2 1.318-2.34 1.978-3.42.72-1.14 1.32-2.22 1.8-3.24.24-.24.39-.6.45-1.08.12-.48.18-.81.18-.99 0-.54-.21-1.05-.63-1.53-.42-.54-.868-1.02-1.348-1.44-.48-.48-.962-.84-1.442-1.08-.42-.3-.66-.45-.72-.45zm36.033 0c0 .006.04.03.04.036.016-.002.036-.035.05-.035h-.09zm.04.036c-.17.022-.357.138-.58.414-.18.24-.36.57-.54.99-.18.42-.33.84-.45 1.26-.06.42-.09.75-.09.99-.48.84-1.02 1.83-1.62 2.97-.6 1.08-1.23 2.25-1.89 3.51-.66 1.2-1.35 2.4-2.07 3.6-.66 1.2-1.26 2.25-1.8 3.15-.84.12-1.47.54-1.89 1.26-.48.66-.72 1.44-.72 2.34 0 .72.18 1.5.54 2.34.3.78.78 1.53 1.44 2.25.66.66 1.47 1.23 2.43 1.71 1.02.42 2.22.63 3.6.63 1.2 0 2.4-.21 3.6-.63 1.2-.36 2.28-.93 3.24-1.71.96-.78 1.74-1.74 2.34-2.88.6-1.2.9-2.55.9-4.05-.3-2.76-.75-5.22-1.35-7.38-.6-2.16-.93-3.96-.99-5.4.06-.18.09-.33.09-.45.06-.12.09-.24.09-.36 0-.3-.03-.54-.09-.72-.18-.6-.51-1.11-.99-1.53-.42-.48-.87-.87-1.35-1.17-.48-.3-.93-.54-1.35-.72-.33-.22-.473-.346-.5-.414zM144.75 21.69c.18.78.42 1.68.72 2.7.36.96.718 1.98 1.078 3.06.36 1.02.66 2.01.9 2.97.3.96.45 1.8.45 2.52 0 .78-.18 1.5-.54 2.16-.36.66-.84 1.23-1.44 1.71-.6.42-1.26.75-1.98.99-.66.24-1.35.36-2.07.36-.72 0-1.41-.15-2.07-.45-.66-.3-1.23-.63-1.71-.99-.42-.42-.78-.84-1.08-1.26-.24-.48-.36-.9-.36-1.26 0-.72.3-1.26.9-1.62.66-.36 1.38-.66 2.16-.9.78-.24 1.47-.42 2.07-.54.66-.12.99-.27.99-.45 0-.24-.06-.42-.18-.54-.06-.06-.12-.09-.18-.09.06.06-.3.09-1.08.09-.72 0-1.68.15-2.88.45.9-1.26 1.92-2.67 3.06-4.23 1.14-1.62 2.22-3.18 3.24-4.68zm162.42 0c.18.78.422 1.68.722 2.7.36.96.718 1.98 1.078 3.06.36 1.02.66 2.01.9 2.97.3.96.45 1.8.45 2.52 0 .78-.18 1.5-.54 2.16-.36.66-.84 1.23-1.44 1.71-.6.42-1.26.75-1.98.99-.66.24-1.35.36-2.07.36-.72 0-1.41-.15-2.07-.45-.66-.3-1.23-.63-1.71-.99-.42-.42-.78-.84-1.08-1.26-.24-.48-.36-.9-.36-1.26 0-.72.3-1.26.9-1.62.66-.36 1.38-.66 2.16-.9.78-.24 1.47-.42 2.07-.54.66-.12.99-.27.99-.45 0-.24-.06-.42-.18-.54-.06-.06-.12-.09-.18-.09.06.06-.3.09-1.08.09-.72 0-1.68.15-2.88.45.9-1.26 1.92-2.67 3.06-4.23 1.14-1.62 2.22-3.18 3.24-4.68zm-222.21.36c.72 0 1.38.21 1.98.63.6.36 1.17.84 1.71 1.44-.66 1.56-1.32 3.42-1.98 5.58-.66 2.16-.99 4.26-.99 6.3-.72.9-1.53 1.62-2.43 2.16-.9.54-1.86.81-2.88.81-1.02 0-1.83-.18-2.43-.54-.54-.36-.99-.84-1.35-1.44-.3-.6-.51-1.23-.63-1.89-.06-.66-.09-1.32-.09-1.98 0-1.32.27-2.64.81-3.96.6-1.32 1.35-2.49 2.25-3.51.9-1.08 1.86-1.95 2.88-2.61 1.08-.66 2.13-.99 3.15-.99zm203.83.09c1.38 0 2.58.42 3.6 1.26-.66 1.92-1.41 4.11-2.25 6.57-.84 2.46-1.59 5.04-2.25 7.74 0 .18-.15.36-.45.54-.24.18-.57.33-.99.45l-1.26.36c-.42.06-.78.09-1.08.09-1.02 0-1.83-.18-2.43-.54-.6-.42-1.05-.9-1.35-1.44-.3-.6-.51-1.26-.63-1.98s-.18-1.44-.18-2.16c0-1.38.27-2.7.81-3.96.6-1.32 1.35-2.49 2.25-3.51.9-1.02 1.89-1.83 2.97-2.43 1.08-.66 2.16-.99 3.24-.99zm-121.242 1.08c.36.12.57.57.63 1.35.06.78.09 1.62.09 2.52 0 .42-.03.84-.09 1.26-.06.42-.15.81-.27 1.17-.24 1.08-.54 2.04-.9 2.88-.36.84-.78 1.59-1.26 2.25-.72-.24-1.2-.87-1.44-1.89s-.362-1.86-.362-2.52c0-.72.092-1.47.272-2.25.24-.84.508-1.59.808-2.25.36-.72.75-1.32 1.17-1.8.42-.48.872-.72 1.352-.72zm-7.47 2.52c-.06.36-.12.75-.18 1.17v1.08c0 1.62.238 3.27.718 4.95.54 1.68 1.59 3 3.15 3.96-.84.78-1.56 1.29-2.16 1.53-.6.24-1.05.36-1.35.36-1.2-.12-2.128-.54-2.788-1.26-.66-.78-.99-1.98-.99-3.6s.33-3.12.99-4.5c.72-1.38 1.59-2.61 2.61-3.69zm-20.53 18c2.16.18 4.08.48 5.76.9 1.44.36 2.788.87 4.048 1.53 1.26.66 2.01 1.5 2.25 2.52-.12.18-.27.36-.45.54-.3.3-.778.45-1.438.45-.54 0-1.08-.12-1.62-.36-1.02-.36-2.042-.81-3.062-1.35-.84-.48-1.77-1.08-2.79-1.8-1.02-.66-1.918-1.47-2.698-2.43zm155.992 1.8c1.02 0 1.71.15 2.07.45.42.3.63.69.63 1.17 0 1.38-.51 2.4-1.53 3.06-.96.66-1.83.99-2.61.99-1.14 0-2.16-.45-3.06-1.35-.84-.9-1.41-1.95-1.71-3.15-.12-.06-.27-.09-.45-.09-.12 0-.27-.03-.45-.09-.24 0-.45-.03-.63-.09 1.8-.12 3.27-.3 4.41-.54 1.2-.24 2.31-.36 3.33-.36z" fill="#cd8c32" font-style="italic" font-size="90" font-family="Wolf in the City" letter-spacing="0" word-spacing="0"/>
</svg>
