<svg id="logos" xmlns="http://www.w3.org/2000/svg" xmlns:xlink="http://www.w3.org/1999/xlink" viewBox="0 0 125 40"><style>.st0{fill-rule:evenodd;clip-rule:evenodd;fill:none}</style><defs><path id="SVGID_1_" d="M38.2 14.4v-1.5c0-.2.2-.4.4-.4h6.7c.2 0 .4.2.4.4v1.3c0 .2-.2.5-.5.9l-3.5 5c1.3 0 2.7.2 3.8.8.3.1.3.4.4.6v1.6c0 .2-.2.5-.5.3-2.1-1.1-4.8-1.2-7.1 0-.2.1-.5-.1-.5-.3v-1.5c0-.2 0-.7.3-1l4-5.8h-3.5c-.2 0-.4-.2-.4-.4zm-24.5 9.3h-2c-.2 0-.3-.2-.4-.3V12.9c0-.2.2-.4.4-.4h1.9c.2 0 .4.2.4.4v1.4c.5-1.3 1.4-1.9 2.7-1.9 1.3 0 2.1.6 2.7 1.9.5-1.3 1.6-1.9 2.8-1.9.9 0 1.8.4 2.4 1.1.6.9.5 2.2.5 3.3v6.6c0 .2-.2.4-.4.4h-2c-.2 0-.4-.2-.4-.4v-5.5c0-.4 0-1.5-.1-2-.2-.7-.6-.9-1.2-.9-.5 0-1 .3-1.2.9-.2.5-.2 1.4-.2 2v5.5c0 .2-.2.4-.4.4h-2c-.2 0-.4-.2-.4-.4v-5.5c0-1.2.2-2.9-1.3-2.9s-1.4 1.7-1.4 2.9v5.5c0 .2-.2.3-.4.3zm37.8-11.4c3 0 4.7 2.6 4.7 5.9 0 3.2-1.8 5.7-4.7 5.7-3 0-4.6-2.6-4.6-5.8 0-3.3 1.6-5.8 4.6-5.8zm0 2.2c-1.5 0-1.6 2-1.6 3.3 0 1.3 0 4 1.6 4s1.7-2.2 1.7-3.5c0-.9 0-1.9-.3-2.8-.3-.8-.8-1-1.4-1zm8.6 9.2h-2c-.2 0-.4-.2-.4-.4V12.8c0-.2.2-.3.4-.3H60c.2 0 .3.1.4.3v1.6c.6-1.4 1.4-2.1 2.8-2.1.9 0 1.8.3 2.4 1.2.5.8.5 2.2.5 3.3v6.6c0 .2-.2.3-.4.3h-2c-.2 0-.3-.2-.4-.3v-5.7c0-1.1.1-2.8-1.3-2.8-.5 0-1 .3-1.2.8-.3.6-.3 1.3-.3 2v5.6c0 .3-.2.4-.4.4zm-25.2 0c-.1.1-.3.1-.5 0-.7-.6-.8-.8-1.2-1.4-1.1 1.1-1.9 1.5-3.4 1.5-1.7 0-3.1-1.1-3.1-3.2 0-1.7.9-2.8 2.2-3.3 1.1-.5 2.7-.6 3.8-.7v-.3c0-.5 0-1.1-.2-1.5-.2-.4-.7-.5-1.1-.5-.8 0-1.5.4-1.6 1.2 0 .2-.2.4-.4.4l-2-.2c-.2 0-.4-.2-.3-.4.5-2.4 2.6-3.1 4.6-3.1 1 0 2.3.3 3.1 1 1 .9.9 2.2.9 3.5v3.2c0 1 .4 1.4.8 1.9.1.2.2.4 0 .5-.5.4-1.2 1-1.6 1.4zm-2.1-5v-.4c-1.5 0-3 .3-3 2.1 0 .9.5 1.5 1.2 1.5.6 0 1.1-.4 1.4-.9.4-.8.4-1.5.4-2.3zm-24.7 5c-.1.1-.3.1-.5 0-.7-.6-.8-.8-1.2-1.4-1.1 1.1-1.9 1.5-3.4 1.5-1.7 0-3.1-1.1-3.1-3.2 0-1.7.9-2.8 2.2-3.3 1.1-.5 2.7-.6 3.8-.7v-.3c0-.5 0-1.1-.2-1.5-.2-.4-.7-.5-1.1-.5-.8 0-1.5.4-1.6 1.2 0 .2-.2.4-.4.4l-2-.2c-.2 0-.4-.2-.3-.4.5-2.4 2.6-3.1 4.6-3.1 1 0 2.3.3 3.1 1 1 .9.9 2.2.9 3.5v3.2c0 1 .4 1.4.8 1.9.1.2.2.4 0 .5-.5.4-1.2 1-1.6 1.4zm-2.1-5v-.4c-1.5 0-3 .3-3 2.1 0 .9.5 1.5 1.2 1.5.6 0 1.1-.4 1.4-.9.4-.8.4-1.5.4-2.3zm35 9c-3.8 2.8-9.4 4.3-14.2 4.3-6.7 0-12.8-2.5-17.3-6.6-.4-.3 0-.8.4-.5 4.9 2.9 11 4.6 17.3 4.6 4.3 0 8.9-.9 13.2-2.7.7-.2 1.2.5.6.9zm1.6-1.8c-.5-.6-3.2-.3-4.5-.1-.4 0-.4-.3-.1-.5 2.2-1.5 5.8-1.1 6.2-.6.4.5-.1 4.1-2.2 5.8-.3.3-.6.1-.5-.2.5-1.2 1.5-3.7 1.1-4.4zm65.1-4c.4-.3.6-.7.6-1.2 0-.4-.1-.6-.3-.9-.2-.2-.6-.4-1.2-.7l-1.9-.7c-1.6-.6-2.5-1.6-2.5-3.1 0-1 .4-1.7 1.1-2.3.7-.6 1.7-.9 2.9-.9 1 0 1.9.2 2.8.5.2.1.3.1.4.2.1.1.1.2.1.4v.8c0 .3-.1.4-.3.4-.1 0-.3 0-.5-.1-.8-.2-1.6-.4-2.4-.4-1.4 0-2.1.5-2.1 1.4 0 .4.1.7.4.9.2.2.7.5 1.4.7l1.7.7c.9.3 1.5.7 1.9 1.2.4.5.6 1.1.6 1.8 0 1-.4 1.9-1.2 2.5-.8.6-1.8.9-3.1.9-1.2 0-2.3-.2-3.3-.6-.2-.1-.3-.2-.4-.2-.1-.1-.1-.2-.1-.4v-.6c0-.3.1-.4.3-.4.1 0 .3 0 .6.1 1 .3 2 .5 3 .5.5 0 1.1-.2 1.5-.5zM97.9 13c0-.3.1-.4.4-.4h1.3c.3 0 .4.1.4.4v10.3c0 .3-.1.4-.4.4h-.9c-.1 0-.3 0-.3-.1-.1-.1-.1-.2-.2-.3l-.2-.8c-1.4 1-2.8 1.5-4.2 1.5-1 0-1.8-.3-2.4-.9-.6-.6-.8-1.4-.8-2.5V13c0-.3.1-.4.4-.4h1.3c.3 0 .4.1.4.4v7c0 .8.2 1.4.5 1.7.3.4.8.6 1.5.6 1.1 0 2.1-.4 3.2-1.1V13zM86.1 23.7c-.3 0-.4-.1-.4-.4v-7.1c0-.7-.1-1.3-.4-1.6-.3-.4-.7-.5-1.3-.5-1.1 0-2.2.3-3.2 1v8.3c0 .3-.1.4-.4.4h-1.3c-.3 0-.4-.1-.4-.4v-7.1c0-.7-.1-1.3-.4-1.6-.3-.4-.7-.5-1.3-.5-1.1 0-2.2.3-3.2 1v8.3c0 .3-.1.4-.4.4h-1.3c-.3 0-.4-.1-.4-.4V13c0-.3.1-.4.4-.4h1c.1 0 .3 0 .3.1.1.1.1.2.2.3l.1.7c1.4-1 2.8-1.5 4.1-1.5 1.4 0 2.3.5 2.8 1.6 1.5-1 2.9-1.6 4.4-1.6 1 0 1.8.3 2.3.9.5.6.8 1.4.8 2.4v7.8c0 .3-.1.4-.4.4h-1.6zm33.7-8.7c-.5.6-.8 1.6-.8 3v.3c0 1.3.3 2.3.8 2.9.6.6 1.4.9 2.6.9.6 0 1.3-.1 2-.3.2 0 .3-.1.3-.1.2 0 .3.1.3.4v.6c0 .2 0 .3-.1.4-.1.1-.2.2-.4.2-.7.3-1.6.5-2.5.5-1.7 0-3.1-.5-4-1.5-.9-1-1.4-2.4-1.4-4.3s.5-3.3 1.4-4.3c.9-1 2.3-1.5 4-1.5.8 0 1.6.1 2.3.4.2.1.3.1.3.2.1.1.1.2.1.4v.8c0 .3-.1.4-.3.4-.1 0-.2 0-.4-.1-.6-.2-1.2-.3-1.8-.3-1 .1-1.9.4-2.4 1zm-5.9-2.4c.3 0 .4.1.4.4v10.3c0 .3-.1.4-.4.4h-1.3c-.3 0-.4-.1-.4-.4V13c0-.3.1-.4.4-.4h1.3zm.4-4.3c.2.2.4.6.4 1s-.1.7-.4 1c-.2.2-.6.4-1 .4s-.8-.1-1-.4c-.2-.2-.4-.6-.4-1s.1-.7.4-1c.2-.2.6-.4 1-.4s.8.1 1 .4z"/></defs><use xlink:href="#SVGID_1_" overflow="visible" fill-rule="evenodd" clip-rule="evenodd" fill="#4200fd"/><clipPath id="SVGID_2_"><use xlink:href="#SVGID_1_" overflow="visible"/></clipPath><path class="st0" d="M0 0h125v40H0z"/></svg>