<?xml version="1.0" standalone="no"?>
<!DOCTYPE svg PUBLIC "-//W3C//DTD SVG 20010904//EN"
 "http://www.w3.org/TR/2001/REC-SVG-20010904/DTD/svg10.dtd">
<svg version="1.0" xmlns="http://www.w3.org/2000/svg"
 width="700.000000pt" height="700.000000pt" viewBox="0 0 700.000000 700.000000"
 preserveAspectRatio="xMidYMid meet">
<metadata>
Created by potrace 1.11, written by Peter Selinger 2001-2013
</metadata>
<g transform="translate(0.000000,700.000000) scale(0.100000,-0.100000)"
fill="#000000" stroke="none">
<path d="M0 5605 c0 -1320 1 -1396 18 -1402 9 -3 75 -30 146 -60 71 -29 130
-52 131 -51 0 2 10 46 22 98 84 381 359 699 701 809 82 26 215 44 273 37 l45
-6 47 68 c125 183 348 338 624 431 197 67 394 92 724 92 218 -1 265 -4 549
-41 192 -25 498 -27 687 -5 194 23 464 95 585 156 71 36 77 31 108 -89 38
-148 -21 -316 -130 -372 -63 -32 -234 -78 -352 -95 -193 -27 -514 -20 -700 15
-28 6 -54 8 -56 5 -3 -3 0 -5 6 -5 6 0 16 -9 22 -19 8 -16 -2 -44 -49 -143
-33 -68 -124 -280 -202 -473 -240 -594 -405 -909 -632 -1210 -183 -244 -369
-382 -630 -469 -480 -161 -1031 -52 -1344 266 -161 163 -246 320 -282 523 -28
154 -8 131 -161 181 -74 24 -138 44 -142 44 -5 0 -8 -875 -8 -1945 l0 -1945
3500 0 3500 0 0 530 0 530 -37 -16 c-75 -32 -239 -84 -312 -100 -511 -105
-1282 145 -1923 623 -238 179 -488 441 -547 574 -52 117 -65 265 -36 416 16
84 70 208 138 313 114 178 374 420 856 795 141 110 281 221 311 246 30 26 98
82 150 125 157 130 316 291 435 439 155 194 236 317 312 475 35 74 68 142 72
150 35 61 281 -110 336 -233 101 -227 22 -432 -284 -738 -185 -184 -450 -382
-858 -638 -528 -332 -724 -472 -897 -640 -170 -166 -236 -273 -257 -419 -46
-318 286 -677 914 -989 278 -139 544 -241 822 -315 155 -41 165 -43 310 -42
164 0 203 6 378 61 l117 37 0 2908 0 2908 -3500 0 -3500 0 0 -1395z m4729
-759 c57 -42 113 -102 138 -148 13 -25 18 -56 18 -123 l0 -90 -92 -190 c-50
-104 -152 -336 -226 -515 -271 -655 -745 -1822 -808 -1994 -37 -99 -59 -224
-59 -333 l0 -85 -37 7 c-96 18 -228 121 -259 201 -43 112 6 364 179 934 88
287 426 1229 527 1468 l10 22 -38 -16 c-87 -38 -182 -73 -252 -93 -204 -57
-513 -83 -715 -62 -183 20 -185 20 -185 47 0 39 36 53 170 64 231 20 436 64
562 123 96 44 285 156 368 217 82 61 244 227 292 300 76 116 113 215 133 351
l7 46 109 -47 c60 -27 131 -64 158 -84z"/>
<path d="M2330 5329 c-314 -26 -563 -122 -739 -284 l-63 -59 74 -34 c142 -68
250 -209 300 -392 18 -68 23 -111 23 -215 0 -119 -3 -137 -29 -208 -15 -43
-27 -80 -24 -82 4 -5 178 12 211 20 12 3 31 -1 42 -9 19 -14 19 -15 1 -35 -30
-33 -115 -59 -220 -67 l-96 -7 -50 -63 c-121 -154 -319 -243 -611 -274 -171
-18 -399 12 -591 79 -32 11 -58 16 -58 12 0 -21 43 -129 79 -198 108 -208 294
-357 522 -418 269 -72 552 -49 774 63 201 101 393 279 528 489 108 170 260
524 487 1136 66 181 137 362 156 404 19 42 33 78 31 80 -9 8 -333 53 -451 63
-141 11 -156 11 -296 -1z"/>
<path d="M1175 4935 c-121 -23 -217 -66 -327 -147 -211 -155 -364 -432 -384
-692 l-7 -82 35 -30 c97 -85 488 -170 708 -154 58 4 125 11 150 15 61 10 176
66 225 109 39 35 40 36 16 42 -39 12 -113 53 -170 97 -211 162 -278 459 -171
752 12 33 24 70 27 83 6 26 1 26 -102 7z"/>
<path d="M1440 4848 c-45 -95 -70 -208 -70 -309 0 -163 37 -267 123 -345 51
-46 156 -104 188 -104 22 0 73 98 98 190 63 228 -13 450 -196 573 -105 70
-108 70 -143 -5z"/>
</g>
</svg>
